# xmcd
#
# Track frame offsets:
#	150
#	20653
#	49840
#	67222
#	100544
#	131314
#	167962
#	185965
#	223057
#	254415
#	299612
#	315081
#
# Disc length: 4680 seconds
#
# Revision: 0
# Processed by: cddbd v1.5.2PL0 Copyright (c) Steve Scherf et al.
# Submitted via: EZCDAudioConverter 2.1.7.1
#
DISCID=b912460c
DTITLE=V/A - Eskimonde 1/5
DYEAR=1900
DGENRE=
TTITLE0=Ilya Santana - Transborder [Letherette Remix]
TTITLE1=Hot Toddy featuring Ron Basejam - I Need Love [Morgan Geist's Love Dub
TTITLE1=]
TTITLE2=Lindstrøm and Prins Thomas - Boney M Down
TTITLE3=Aeroplane - Caramellas
TTITLE4=Simone Fedi - Bitter Devotion [Ewan Pearson Extended Remix]
TTITLE5=Downtown Party Network - Days Like These [Vocal]
TTITLE6=Bottin and Rodion - Galli (Give It Up) [Edit]
TTITLE7=Hiem - Clubscene Popscene [A Just Us Diskopop Version]
TTITLE8=Stratus - Footprints
TTITLE9=Reverso 68 - Piece Together [Todd Terje Spinning Star Mix]
TTITLE10=Low Motion Disco - Things Are Gonna Get Easier [Sebastien Tellier Voc
TTITLE10=al Remix]
TTITLE11=Allez Allez - African Queen [Quiet Village Dub]
EXTD=
EXTT0=
EXTT1=
EXTT2=
EXTT3=
EXTT4=
EXTT5=
EXTT6=
EXTT7=
EXTT8=
EXTT9=
EXTT10=
EXTT11=
PLAYORDER=
